<svg xmlns="http://www.w3.org/2000/svg" viewBox="0 0 193.5 30"><path d="M116.65 19.66c-.68.03-1.35-.02-2.01-.14.39-.66.64-1.4.7-2.19.6.1 1.21.14 1.85.13-.07.86-.26 1.58-.54 2.2m.97-2.22c.52-.04 1.05-.13 1.59-.24l-.04-.42c-.49.16-1.01.27-1.55.34-.03-.86-.24-1.77-.62-2.71.2 1.04.26 1.95.22 2.74-.6.04-1.22.01-1.86-.09.04-.93-.13-1.93-.52-2.97.17 1.11.2 2.07.12 2.88-.95-.2-1.93-.57-2.91-1.18.78.74 1.76 1.22 2.87 1.47-.1.76-.32 1.5-.67 2.18a9 9 0 0 1-2.7-1.13c.71.67 1.57 1.12 2.54 1.4-.48.82-1.08 1.4-1.64 1.84.88-.46 1.55-1.06 2.03-1.76.64.14 1.3.2 2 .2-.46.86-1.04 1.48-1.61 1.96.92-.53 1.59-1.2 2.05-1.97.6-.04 1.22-.13 1.84-.27l.18-.49c-.58.2-1.2.35-1.85.42.34-.69.52-1.42.53-2.2" fill="#fbbc12"/><path d="M10.75 10.29l3.32 8.03.26 1.29.29-1.29 3.1-7.33c.23-.49.61-.97 1.33-.97h.55c.46 0 .87.03.87.42 0 .2-.16.55-.16.55l-5.58 12.65s-.26.58-.38.58c-.13 0-.38-.58-.38-.58l-3.43-8.02-.29-1.29-.29 1.29-3.42 8.03s-.26.58-.38.58c-.13 0-.38-.58-.38-.58L.16 11S0 10.65 0 10.45c0-.38.42-.42.87-.42h.55c.71 0 1.1.49 1.33.97l3.1 7.33.29 1.29.26-1.29 3.32-8.03c.16-.38.35-.58.52-.58.16 0 .34.19.51.57zm22.58 9.91c.2-.2.42-.29.68-.29.23 0 .49.09.68.29l.31.32c.2.2.29.42.29.68 0 .26-.09.46-.29.68-1.12 1.33-3.19 2.69-5.93 2.69-4.19 0-6.93-3.39-6.93-7.59s2.74-7.59 6.93-7.59S36 12.78 36 17.07c0 .55-.46.97-.97.97H24.62s.64 4.13 4.45 4.13c1.88 0 3.33-.9 4.26-1.97zm.2-4.23c-.52-2.32-1.81-4.26-4.45-4.26s-3.94 1.94-4.45 4.26h8.9zm11.03-6.58c4.23 0 5.74 2.65 5.74 5.51v8.03c0 .55-.46.97-.97.97h-.46a.97.97 0 0 1-.97-.97v-.64c-.78 1.29-2.03 2.1-4 2.1-3.1 0-5.19-1.81-5.19-4.33 0-3.36 2.81-4.55 5.94-4.55 1.74 0 2.81.29 3.26.46v-1.38c0-1.91-2.13-2.87-3.36-2.87s-2 .16-2.58.46c-.29.16-.52.26-.71.26-.23 0-.49-.09-.75-.35l-.38-.42a.776.776 0 0 1-.23-.58c0-.32.13-.55.32-.68.99-.57 2.34-1.02 4.34-1.02zm3.36 8.81c-.52-.23-1.68-.55-3.39-.55-2.29 0-3.42.9-3.42 2.42 0 1.1 1.07 1.94 2.81 1.94 1.52 0 3.23-.93 4-2.84v-.97zm6.74.29v-6.23H53.4c-.55 0-.97-.46-.97-.97V11c0-.52.42-.97.97-.97h1.26V6.22c0-.55.46-.97.97-.97h.46c.52 0 .97.42.97.97v3.81h3.03c.55 0 .97.46.97.97v.29c0 .52-.42.97-.97.97h-3.03v6.52c0 1.74 1.45 2.65 3.03 3.07.58.16.97.46.97.97v.46c0 .52-.42.9-.97.9-.85-.01-5.43-.66-5.43-5.69zm20.07 5.42h-.45a.97.97 0 0 1-.97-.97V17.1c0-2.23-.64-5.22-3.45-5.22-1.52 0-2.87 1.04-3.84 3.03v8.03c0 .55-.46.97-.97.97h-.45a.97.97 0 0 1-.97-.97V1.97c0-.55.46-.97.97-.97h.46c.52 0 .97.42.97.97v9.62c1.13-1.29 2.78-2.03 3.84-2.03 4.23 0 5.84 2.74 5.84 6.9v6.49c-.01.52-.44.95-.98.96.01 0 .01 0 0 0zM89.7 20.2c.2-.2.42-.29.68-.29.23 0 .49.09.68.29l.32.32c.2.2.29.42.29.68 0 .26-.09.46-.29.68-1.13 1.33-3.2 2.68-5.94 2.68-4.19 0-6.93-3.39-6.93-7.59s2.74-7.59 6.93-7.59 6.93 3.39 6.93 7.68c0 .55-.46.97-.97.97H80.99s.64 4.13 4.45 4.13c1.88.01 3.33-.89 4.26-1.96zm.2-4.23c-.52-2.32-1.81-4.26-4.45-4.26s-3.94 1.94-4.45 4.26h8.9zm8-1.16v8.13c0 .55-.46.97-.97.97h-.46a.97.97 0 0 1-.97-.97V11c0-.55.46-.97.97-.97h.46c.52 0 .97.42.97.97v.32c1.13-1.04 2.36-1.94 4.32-1.94.68 0 1.22.09 1.22.09.35.06.68.32.68.78 0 .09-.06.32-.06.32l-.16.58c-.16.38-.42.68-.78.68-.2 0-.61-.06-.87-.06-1.67.01-3.58.78-4.35 3.04zm33.08 0v8.13c0 .55-.46.97-.97.97h-.46a.97.97 0 0 1-.97-.97V11c0-.55.46-.97.97-.97h.46c.52 0 .97.42.97.97v.32c1.13-1.04 2.36-1.94 4.32-1.94.68 0 1.22.09 1.22.09.35.06.68.32.68.78 0 .09-.06.32-.06.32l-.16.58c-.16.38-.42.68-.78.68-.2 0-.61-.06-.87-.06-1.67.01-3.57.78-4.35 3.04zm13.26-5.42c4.23 0 5.74 2.65 5.74 5.51v8.03c0 .55-.46.97-.97.97h-.46a.97.97 0 0 1-.97-.97v-.64c-.78 1.29-2.03 2.1-4 2.1-3.1 0-5.19-1.81-5.19-4.33 0-3.36 2.81-4.55 5.94-4.55 1.74 0 2.81.29 3.26.46v-1.38c0-1.91-2.13-2.87-3.36-2.87-1.22 0-2 .16-2.58.46-.29.16-.52.26-.71.26-.23 0-.49-.09-.75-.35l-.38-.42a.776.776 0 0 1-.23-.58c0-.32.13-.55.32-.68.98-.57 2.34-1.02 4.34-1.02zm3.36 8.81c-.52-.23-1.68-.55-3.39-.55-2.29 0-3.42.9-3.42 2.42 0 1.1 1.07 1.94 2.81 1.94 1.52 0 3.23-.93 4-2.84v-.97zm18.1 5.71h-.46a.97.97 0 0 1-.97-.97v-.64c-.78.93-2.36 2.1-4.33 2.1-4.23 0-7.13-3.23-7.13-7.45 0-4.16 2.91-7.42 7.13-7.42 1.74 0 3.39.9 4.33 2.1V1.97c0-.55.46-.97.97-.97h.46c.52 0 .97.42.97.97v20.97c0 .55-.46.97-.97.97zm-5.74-12c-2.87 0-4.77 2.16-4.77 5.03s1.91 5.13 4.77 5.13c1.52 0 4.65-1 4.65-5.13-.01-3.87-3.14-5.03-4.65-5.03zm15.64-2.52c4.23 0 5.74 2.65 5.74 5.51v8.03c0 .55-.46.97-.97.97h-.46a.97.97 0 0 1-.97-.97v-.64c-.78 1.29-2.03 2.1-4 2.1-3.1 0-5.2-1.81-5.2-4.33 0-3.36 2.81-4.55 5.94-4.55 1.74 0 2.81.29 3.26.46v-1.38c0-1.91-2.13-2.87-3.36-2.87s-2 .16-2.58.46c-.29.16-.52.26-.71.26-.23 0-.49-.09-.75-.35l-.38-.42a.776.776 0 0 1-.23-.58c0-.32.13-.55.32-.68.99-.57 2.35-1.02 4.35-1.02zm3.36 8.81c-.52-.23-1.68-.55-3.39-.55-2.29 0-3.42.9-3.42 2.42 0 1.1 1.07 1.94 2.81 1.94 1.52 0 3.23-.93 4-2.84v-.97zm8.32-3.39v8.13c0 .55-.46.97-.97.97h-.46a.97.97 0 0 1-.97-.97V11c0-.55.46-.97.97-.97h.46c.52 0 .97.42.97.97v.32c1.13-1.04 2.36-1.94 4.32-1.94.68 0 1.22.09 1.22.09.35.06.68.32.68.78 0 .09-.06.32-.06.32l-.16.58c-.16.38-.42.68-.78.68-.2 0-.61-.06-.87-.06-1.67.01-3.57.78-4.35 3.04z" fill="#fff"/><path d="M124.98 15.34l-.04-.37a.773.773 0 0 0-.28-.53.782.782 0 0 0-.57-.16c-.16.03-.6.02-.65.02-.75 0-1.77-.15-2.79-.75-.08-.05-1.41-1.15-1.41-1.15l-1.08 1.66.04.06c1.16 1.79.9 3.32.9 3.36 0 3.69-3.54 5.22-5.43 5.22a5.51 5.51 0 0 1-5.5-5.5c0-1.99 1.22-4 2.9-4.76.14-.06.67-.27 1.05-.43.45-.18 1.1-.45 1.42-.57 1.55-.55 3.41-1.66 3.41-3.77 0-2.3-1.72-4.11-3.92-4.11-2.27 0-4.1 1.84-4.11 4.11 0 1.24.52 2.34 1.49 3.18l-.69.52c-1.27.88-3.41 2.8-3.41 5.83 0 4.05 3.3 7.34 7.34 7.34 1.51 0 3.17-.59 4.46-1.58 1.19-.91 2.64-2.6 2.86-5.56 0-.01.09-.63-.08-1.53l-.01-.02c1.23.48 2.46.51 3.41.32.24-.05.39-.12.53-.28.14-.14.19-.33.16-.55zm-11.97-10.1c1.29 0 2.3 1.08 2.3 2.46 0 .79-.76 1.95-2.89 2.62l-.18.05-.13-.12c-1.05-.93-1.55-1.42-1.55-2.56-.02-1.51 1.26-2.45 2.45-2.45z" fill="#fbbc12"/></svg>